<?xml version="1.0" encoding="iso-8859-1"?>
<!-- Generator: Adobe Illustrator 19.0.0, SVG Export Plug-In . SVG Version: 6.00 Build 0)  -->
<svg version="1.1" id="Layer_1" xmlns="http://www.w3.org/2000/svg" xmlns:xlink="http://www.w3.org/1999/xlink" x="0px" y="0px"
	 viewBox="0 0 425.889 425.889" style="enable-background:new 0 0 425.889 425.889;" xml:space="preserve">
<g>
	<path style="fill:#4D4D4D;" d="M195.366,171.744c0,0-63.314,3.616-72.872,64.875s-17.172,66.818-41.81,69.047
		c0,0,58.334,2.354,69.462-34.37s48.346-37.23,48.346-37.23L195.366,171.744z"/>
	<path style="fill:#4DA8F4;" d="M345.205,336.496v89.39h-235.03v-89.39c0-39.62,28.4-72.6,65.95-79.7
		c4.91-0.93,9.99-1.42,15.17-1.42h72.79c5.18,0,10.26,0.49,15.17,1.42C316.805,263.896,345.205,296.876,345.205,336.496z"/>
	<rect x="110.175" y="374.709" style="fill:#FFD3AE;" width="40.5" height="51.18"/>
	<rect x="304.705" y="374.709" style="fill:#FFD3AE;" width="40.5" height="51.18"/>
	<rect x="304.705" y="364.4" style="fill:#3C93CE;" width="40.5" height="13.44"/>
	<rect x="110.175" y="364.4" style="fill:#3C93CE;" width="40.5" height="13.44"/>
	<path style="fill:#3C93CE;" d="M279.255,256.796v5.68c0,13.79-5.36,26.73-15.11,36.46c-9.73,9.74-22.68,15.1-36.46,15.1
		c-28.43,0-51.56-23.13-51.56-51.56v-5.68c4.91-0.93,9.99-1.42,15.17-1.42h72.79C269.265,255.376,274.345,255.866,279.255,256.796z"
		/>
	<path style="fill:#FFD3AE;" d="M271.255,232.709v29.77c0,12.02-4.87,22.92-12.76,30.8c-7.88,7.88-18.78,12.76-30.81,12.76
		c-24.06,0-43.56-19.5-43.56-43.56v-29.77H271.255z"/>
	<g>
		<g>
			<circle style="fill:#E5B591;" cx="160.311" cy="153.889" r="27.89"/>
			<circle style="fill:#E5B591;" cx="294.946" cy="153.889" r="27.89"/>
		</g>
	</g>
	<path style="fill:#E5B591;" d="M271.255,232.709v24.06c-12.86,7.29-27.73,11.45-43.57,11.45s-30.7-4.16-43.56-11.45v-24.06
		L271.255,232.709L271.255,232.709z"/>
	<path style="fill:#FFD3AE;" d="M227.629,252.889L227.629,252.889c-40.532,0-74.168-31.335-77.034-71.766l-5.157-72.741
		c-3.38-47.681,34.39-88.224,82.191-88.224l0,0c47.801,0,85.571,40.542,82.191,88.224l-5.157,72.741
		C301.797,221.553,268.161,252.889,227.629,252.889z"/>
	<polyline style="fill:#E5B591;" points="308.948,119.713 146.448,128.213 149.448,103.713 312.812,108.594 	"/>
	<path style="fill:#4D4D4D;" d="M227.629,255.889c-20.365,0-39.786-7.645-54.687-21.526s-23.899-32.714-25.34-53.028l-5.157-72.741
		c-1.694-23.901,6.368-46.718,22.701-64.25c16.333-17.531,38.522-27.186,62.483-27.186s46.151,9.655,62.483,27.187
		c16.333,17.531,24.395,40.349,22.7,64.25l-5.157,72.741c-1.44,20.314-10.439,39.146-25.34,53.028S247.993,255.889,227.629,255.889z
		 M227.629,23.158c-22.277,0-42.909,8.977-58.093,25.276c-15.186,16.3-22.681,37.515-21.105,59.736l5.157,72.74
		c2.742,38.68,35.265,68.979,74.041,68.979c38.777,0,71.3-30.299,74.042-68.978l5.157-72.741
		c1.576-22.222-5.919-43.436-21.105-59.736C270.537,32.134,249.906,23.158,227.629,23.158z"/>
	<g>
		<path style="fill:#E5B591;" d="M176.553,141.222h35.044c6.522,0,11.81,5.287,11.81,11.81v25.558c0,2.643,2.142,4.785,4.785,4.785
			h11.183l-9.485,3.366c-3.672,1.303-7.767,0.37-10.513-2.395L176.553,141.222z"/>
	</g>
	<g>
		<path style="fill:#FFFFFF;" d="M248.64,200.158c0,2.475-0.432,4.842-1.229,7.052c-0.374,1.063-0.839,2.085-1.371,3.057
			c-3.572,6.462-10.449,10.839-18.356,10.839c-7.916,0-14.793-4.377-18.365-10.839c-0.54-0.972-1.005-1.993-1.379-3.057
			c-0.797-2.209-1.221-4.577-1.221-7.052H248.64z"/>
		<path style="fill:#333333;" d="M247.418,207.21c-0.374,1.063-0.839,2.085-1.371,3.057c-3.572,6.462-10.449,10.839-18.356,10.839
			c-7.916,0-14.793-4.377-18.365-10.839c-0.54-0.972-1.005-1.993-1.379-3.057H247.418z"/>
	</g>
	<path style="fill:#4D4D4D;" d="M204.311,145.658c-0.322,0-0.65-0.052-0.972-0.163c-6.947-2.379-14.6-2.379-21.547,0
		c-1.567,0.536-3.273-0.3-3.81-1.867s0.299-3.273,1.867-3.81c8.2-2.808,17.233-2.808,25.434,0c1.567,0.537,2.403,2.243,1.867,3.81
		C206.722,144.875,205.558,145.658,204.311,145.658z"/>
	<path style="fill:#4D4D4D;" d="M274.438,145.658c-0.322,0-0.65-0.052-0.972-0.163c-6.947-2.379-14.6-2.379-21.547,0
		c-1.567,0.536-3.273-0.3-3.81-1.867s0.299-3.273,1.867-3.81c8.2-2.808,17.233-2.808,25.434,0c1.567,0.537,2.403,2.243,1.867,3.81
		C276.849,144.875,275.685,145.658,274.438,145.658z"/>
	<g>
		<circle style="fill:#FCC9A2;" cx="271.934" cy="190.158" r="16"/>
		<circle style="fill:#FCC9A2;" cx="183.434" cy="190.158" r="16"/>
	</g>
	<path style="fill:#3C93CE;" d="M300.279,372.828v10.59c0,15.87-12.86,28.74-28.73,28.74h-87.71c-15.87,0-28.74-12.87-28.74-28.74
		v-10.59h0.4c2.25,13.62,14.09,24,28.34,24h87.71c14.25,0,26.08-10.38,28.33-24H300.279z"/>
	<path style="fill:#4D4D4D;" d="M195.616,108.684c0,0,26.667,27.333,54,26s44,12,45.333,29.333c0,0,9.333-36.667-8.667-52.667
		S195.616,108.684,195.616,108.684z"/>
	<path style="fill:#3C93CE;" d="M328.583,101.96c0,7.77-6.29,14.06-14.06,14.06h-175.78c-3.88,0-7.4-1.57-9.95-4.12
		c-2.55-2.54-4.12-6.05-4.12-9.94c0-25.56,9.41-48.93,24.95-66.83c0.97,0.18,1.96,0.27,2.98,0.27c9.06,0,16.41-7.34,16.41-16.41
		c0-0.38-0.01-0.76-0.04-1.13c7.86-5.4,16.52-9.73,25.75-12.77c2.02,0.9,4.26,1.39,6.61,1.39c4.96,0,9.4-2.2,12.4-5.67
		c4.22-0.53,8.53-0.81,12.9-0.81s8.67,0.27,12.89,0.81c3,3.47,7.44,5.67,12.4,5.67c2.35,0,4.58-0.49,6.6-1.39
		c9.21,3.03,17.85,7.34,25.69,12.72c-0.03,0.39-0.04,0.78-0.04,1.18c0,9.07,7.34,16.41,16.4,16.41c1.04,0,2.06-0.1,3.05-0.28
		C319.173,53.02,328.583,76.4,328.583,101.96z"/>
	<path style="fill:#4DA8F4;" d="M328.583,101.96c0,7.77-6.29,14.06-14.06,14.06h-175.78c-3.88,0-7.4-1.57-9.95-4.12
		c-2.55-2.54-4.12-6.05-4.12-9.94c0-25.56,9.41-48.94,24.96-66.84v31.24c0,5.34,4.32,9.66,9.66,9.66s9.67-4.32,9.67-9.66V17.87
		c7.8-5.37,16.39-9.67,25.56-12.7v47.19c0,5.34,4.32,9.66,9.66,9.66s9.67-4.32,9.67-9.66V0.8c4.19-0.53,8.45-0.8,12.78-0.8
		s8.59,0.27,12.77,0.8v51.56c0,5.34,4.33,9.66,9.67,9.66s9.67-4.32,9.67-9.66V5.17c9.16,3.03,17.75,7.33,25.55,12.7v48.49
		c0,5.34,4.33,9.66,9.67,9.66s9.67-4.32,9.67-9.66V35.13C319.173,53.03,328.583,76.4,328.583,101.96z"/>
	<g>
		<circle style="fill:#333333;" cx="192.565" cy="157.213" r="6"/>
		<circle style="fill:#333333;" cx="262.692" cy="157.213" r="6"/>
	</g>
</g>
<g>
</g>
<g>
</g>
<g>
</g>
<g>
</g>
<g>
</g>
<g>
</g>
<g>
</g>
<g>
</g>
<g>
</g>
<g>
</g>
<g>
</g>
<g>
</g>
<g>
</g>
<g>
</g>
<g>
</g>
</svg>
