<?xml version="1.0" encoding="iso-8859-1"?>
<!-- Generator: Adobe Illustrator 19.0.0, SVG Export Plug-In . SVG Version: 6.00 Build 0)  -->
<svg version="1.1" id="Layer_1" xmlns="http://www.w3.org/2000/svg" xmlns:xlink="http://www.w3.org/1999/xlink" x="0px" y="0px"
	 viewBox="0 0 423.997 423.997" style="enable-background:new 0 0 423.997 423.997;" xml:space="preserve">
<g>
	<path style="fill:#F4A453;" d="M315.502,423.997h-210.5c0,0,5.772-145.59,29.982-159.61c7.76-4.51,16.34-7.76,25.45-9.48
		c4.91-0.93,9.99-1.42,15.17-1.42h72.79c5.18,0,10.26,0.49,15.17,1.42c9.12,1.72,17.69,4.97,25.45,9.47
		C313.224,278.407,315.502,423.997,315.502,423.997z"/>
	<path style="fill:#FFD3AE;" d="M134.984,264.387v159.61h-40.5v-89.39C94.484,304.607,110.774,278.407,134.984,264.387z"/>
	<path style="fill:#FFD3AE;" d="M329.513,334.607v89.39h-40.5v-159.62C313.224,278.407,329.513,304.607,329.513,334.607z"/>
	<path style="fill:#FFD3AE;" d="M255.568,230.817v29.77c0,12.02-4.87,22.92-12.76,30.8c-7.88,7.88-18.78,12.76-30.81,12.76
		c-24.06,0-43.56-19.5-43.56-43.56v-29.77H255.568z"/>
	<path style="fill:#E5B591;" d="M255.568,230.817v24.06c-12.86,7.29-27.73,11.45-43.57,11.45s-30.7-4.16-43.56-11.45v-24.06H255.568
		z"/>
	<g>
		<g>
			<circle style="fill:#E5B591;" cx="133.017" cy="140" r="27.89"/>
			<circle style="fill:#E5B591;" cx="294.151" cy="140" r="27.89"/>
		</g>
	</g>
	<path style="fill:#FFD3AE;" d="M302.086,88.5v74c0,30.35-15.28,57.13-38.56,73.07c-0.19,0.14-0.39,0.27-0.58,0.4
		c-14.1,9.49-31.08,15.03-49.36,15.03s-35.26-5.54-49.36-15.03c-0.19-0.13-0.39-0.26-0.58-0.4c-23.28-15.94-38.56-42.72-38.56-73.07
		v-74C125.087,39.62,302.086,64.06,302.086,88.5z"/>
	<g>
		<path style="fill:#E5B591;" d="M166.454,139.333h35.044c6.522,0,11.81,5.287,11.81,11.81v21.123c0,5.092,4.128,9.22,9.22,9.22
			h6.748l-2.943,1.044c-7.666,2.72-16.214,0.773-21.946-4.999L166.454,139.333z"/>
	</g>
	<g>
		<path style="fill:#333333;" d="M179.583,160.436c-1.58,0-3.13-0.64-4.24-1.75c-1.12-1.12-1.76-2.67-1.76-4.25s0.64-3.12,1.76-4.24
			c1.39-1.39,3.46-2.03,5.41-1.64c0.39,0.08,0.76,0.19,1.13,0.34c0.36,0.15,0.71,0.34,1.03,0.55c0.33,0.22,0.64,0.47,0.91,0.75
			c0.28,0.28,0.53,0.58,0.75,0.91s0.4,0.68,0.55,1.04c0.15,0.36,0.27,0.74,0.34,1.12c0.08,0.39,0.12,0.78,0.12,1.17
			s-0.04,0.79-0.12,1.18c-0.07,0.38-0.19,0.76-0.34,1.12s-0.33,0.71-0.55,1.03c-0.22,0.33-0.47,0.64-0.75,0.92
			C182.714,159.797,181.163,160.436,179.583,160.436z"/>
		<path style="fill:#333333;" d="M247.583,160.436c-0.39,0-0.79-0.04-1.17-0.11c-0.38-0.08-0.76-0.2-1.12-0.35
			c-0.37-0.15-0.71-0.33-1.04-0.55c-0.33-0.22-0.64-0.47-0.91-0.74c-0.28-0.28-0.53-0.59-0.75-0.92c-0.22-0.32-0.4-0.67-0.55-1.03
			c-0.15-0.36-0.27-0.74-0.34-1.12c-0.08-0.39-0.12-0.79-0.12-1.18s0.04-0.78,0.12-1.17c0.07-0.38,0.19-0.76,0.34-1.12
			s0.33-0.71,0.55-1.04c0.22-0.33,0.47-0.63,0.75-0.91c0.27-0.28,0.58-0.53,0.91-0.75c0.33-0.21,0.67-0.4,1.04-0.55
			c0.36-0.15,0.74-0.26,1.12-0.34c1.95-0.39,4.02,0.25,5.41,1.64c0.28,0.28,0.53,0.58,0.75,0.91s0.4,0.68,0.55,1.04
			c0.15,0.36,0.27,0.74,0.34,1.12c0.08,0.39,0.12,0.78,0.12,1.17s-0.04,0.79-0.12,1.18c-0.07,0.38-0.19,0.76-0.34,1.12
			s-0.33,0.71-0.55,1.03c-0.22,0.33-0.47,0.64-0.75,0.92C250.714,159.797,249.163,160.436,247.583,160.436z"/>
	</g>
	<g>
		<path style="fill:#4D4D4D;" d="M190.521,142.333h-21.875c-3.087,0-5.59-2.503-5.59-5.59l0,0c0-3.087,2.503-5.59,5.59-5.59h21.875
			c3.087,0,5.59,2.503,5.59,5.59l0,0C196.111,139.831,193.609,142.333,190.521,142.333z"/>
		<path style="fill:#4D4D4D;" d="M258.521,142.333h-21.875c-3.087,0-5.59-2.503-5.59-5.59l0,0c0-3.087,2.503-5.59,5.59-5.59h21.875
			c3.087,0,5.59,2.503,5.59,5.59l0,0C264.112,139.831,261.609,142.333,258.521,142.333z"/>
	</g>
	<path style="fill:#FFFFFF;" d="M238.818,193.997c0,2.98-0.52,5.83-1.48,8.49c-0.45,1.28-1.01,2.51-1.65,3.68
		c-4.3,7.78-12.58,13.05-22.1,13.05c-9.53,0-17.81-5.27-22.11-13.05c-0.65-1.17-1.21-2.4-1.66-3.68c-0.96-2.66-1.47-5.51-1.47-8.49
		H238.818z"/>
	<path style="fill:#333333;" d="M237.344,202.487c-0.45,1.28-1.01,2.51-1.65,3.68c-4.3,7.78-12.58,13.05-22.1,13.05
		c-9.53,0-17.81-5.27-22.11-13.05c-0.65-1.17-1.21-2.4-1.66-3.68H237.344z"/>
	<rect x="156.499" y="329.03" style="fill:#F2F2F2;" width="111" height="81.607"/>
	<g>
		<path d="M182.072,393.681v-3.483l4.451-4.321c10.707-10.191,15.544-15.609,15.608-21.93c0-4.257-2.064-8.191-8.32-8.191
			c-3.805,0-6.966,1.935-8.901,3.547l-1.806-3.999c2.902-2.451,7.03-4.257,11.868-4.257c9.03,0,12.835,6.192,12.835,12.19
			c0,7.74-5.612,13.996-14.448,22.51l-3.354,3.096v0.129h18.833v4.708L182.072,393.681L182.072,393.681z"/>
		<path d="M215.159,393.681v-3.483l4.451-4.321c10.707-10.191,15.544-15.609,15.608-21.93c0-4.257-2.064-8.191-8.32-8.191
			c-3.805,0-6.966,1.935-8.901,3.547l-1.806-3.999c2.902-2.451,7.03-4.257,11.868-4.257c9.03,0,12.835,6.192,12.835,12.19
			c0,7.74-5.612,13.996-14.448,22.51l-3.354,3.096v0.129h18.833v4.708L215.159,393.681L215.159,393.681z"/>
	</g>
	<path style="fill:#333333;" d="M302.086,88.5v59.11c-39.66-18.89-53.35-64.11-53.35-64.11c-35,39-123.65,41.61-123.65,41.61V88.5
		c0-48.88,39.62-88.5,88.5-88.5c24.43,0,46.56,9.91,62.58,25.92C292.177,41.93,302.086,64.06,302.086,88.5z"/>
</g>
<g>
</g>
<g>
</g>
<g>
</g>
<g>
</g>
<g>
</g>
<g>
</g>
<g>
</g>
<g>
</g>
<g>
</g>
<g>
</g>
<g>
</g>
<g>
</g>
<g>
</g>
<g>
</g>
<g>
</g>
</svg>
