<?xml version="1.0" encoding="iso-8859-1"?>
<!-- Generator: Adobe Illustrator 19.0.0, SVG Export Plug-In . SVG Version: 6.00 Build 0)  -->
<svg version="1.1" id="Layer_1" xmlns="http://www.w3.org/2000/svg" xmlns:xlink="http://www.w3.org/1999/xlink" x="0px" y="0px"
	 viewBox="0 0 435.871 435.871" style="enable-background:new 0 0 435.871 435.871;" xml:space="preserve">
<g>
	<circle style="fill:#333333;" cx="216.453" cy="39.608" r="39.608"/>
	<path style="fill:#517EBF;" d="M334.031,346.481v89.39H99.001v-89.39c0-39.62,28.4-72.6,65.95-79.7c4.91-0.93,9.99-1.42,15.17-1.42
		h72.79c5.18,0,10.26,0.49,15.17,1.42C305.631,273.881,334.031,306.861,334.031,346.481z"/>
	<path style="fill:#FFD3AE;" d="M139.501,276.261v159.61h-40.5v-89.39C99.001,316.481,115.291,290.281,139.501,276.261z"/>
	<path style="fill:#FFD3AE;" d="M334.031,346.481v89.39h-40.5v-159.62C317.741,290.281,334.031,316.481,334.031,346.481z"/>
	<path style="fill:#FFD3AE;" d="M260.084,242.691v29.77c0,12.02-4.87,22.92-12.76,30.8c-7.88,7.88-18.78,12.76-30.81,12.76
		c-24.06,0-43.56-19.5-43.56-43.56v-29.77H260.084z"/>
	<path style="fill:#E5B591;" d="M260.084,242.691v24.06c-12.86,7.29-27.73,11.45-43.57,11.45c-15.84,0-30.7-4.16-43.56-11.45v-24.06
		L260.084,242.691L260.084,242.691z"/>
	<rect x="161.016" y="336.238" style="fill:#F2F2F2;" width="111" height="81.607"/>
	<g>
		<path d="M186.589,400.889v-3.483l4.451-4.321c10.707-10.191,15.544-15.609,15.608-21.93c0-4.257-2.064-8.191-8.32-8.191
			c-3.805,0-6.966,1.935-8.901,3.547l-1.806-3.999c2.902-2.451,7.03-4.257,11.868-4.257c9.03,0,12.835,6.192,12.835,12.19
			c0,7.74-5.612,13.996-14.448,22.51l-3.354,3.096v0.129h18.833v4.708L186.589,400.889L186.589,400.889z"/>
		<path d="M219.676,400.889v-3.483l4.451-4.321c10.707-10.191,15.544-15.609,15.608-21.93c0-4.257-2.064-8.191-8.32-8.191
			c-3.805,0-6.966,1.935-8.901,3.547l-1.806-3.999c2.902-2.451,7.03-4.257,11.868-4.257c9.03,0,12.835,6.192,12.835,12.19
			c0,7.74-5.612,13.996-14.448,22.51l-3.354,3.096v0.129h18.833v4.708L219.676,400.889L219.676,400.889z"/>
	</g>
	<g>
		<g>
			<circle style="fill:#E5B591;" cx="149.137" cy="163.874" r="27.89"/>
			<circle style="fill:#E5B591;" cx="283.772" cy="163.874" r="27.89"/>
		</g>
	</g>
	<path style="fill:#FFD3AE;" d="M285.938,102.205l9.491,61.505l-1.94,27.4c-2.87,40.43-36.5,71.77-77.03,71.77
		c-40.54,0-74.17-31.34-77.04-71.77l-1.94-27.4l2.459-60.171C136.559,55.858,286.078,100.215,285.938,102.205z"/>
	<g>
		<path style="fill:#E5B591;" d="M165.379,151.208h35.044c6.522,0,11.81,5.287,11.81,11.81v25.558c0,2.643,2.142,4.785,4.785,4.785
			h11.183l-9.485,3.366c-3.672,1.303-7.767,0.37-10.513-2.395L165.379,151.208z"/>
	</g>
	<g>
		<path style="fill:#FFFFFF;" d="M237.466,210.143c0,2.475-0.432,4.842-1.229,7.052c-0.374,1.063-0.839,2.085-1.371,3.057
			c-3.572,6.462-10.449,10.839-18.356,10.839c-7.916,0-14.793-4.377-18.365-10.839c-0.54-0.972-1.005-1.993-1.379-3.057
			c-0.797-2.209-1.221-4.577-1.221-7.052H237.466z"/>
		<path style="fill:#333333;" d="M236.244,217.195c-0.374,1.063-0.839,2.085-1.371,3.057c-3.572,6.462-10.449,10.839-18.356,10.839
			c-7.916,0-14.793-4.377-18.365-10.839c-0.54-0.972-1.005-1.993-1.379-3.057H236.244z"/>
	</g>
	<path style="fill:#935827;" d="M169.645,155.644c-1.247,0-2.412-0.784-2.838-2.029c-0.537-1.567,0.299-3.273,1.867-3.81
		c8.2-2.807,17.233-2.808,25.435,0c1.568,0.537,2.403,2.243,1.867,3.81c-0.538,1.567-2.244,2.402-3.81,1.867
		c-6.948-2.379-14.601-2.379-21.548,0C170.296,155.591,169.968,155.644,169.645,155.644z"/>
	<path style="fill:#935827;" d="M263.263,155.644c-0.322,0-0.649-0.052-0.972-0.163c-6.947-2.379-14.6-2.379-21.547,0
		c-1.563,0.535-3.273-0.299-3.81-1.867c-0.537-1.567,0.299-3.273,1.866-3.81c8.201-2.808,17.232-2.808,25.434,0
		c1.567,0.537,2.403,2.243,1.866,3.81C265.675,154.86,264.51,155.644,263.263,155.644z"/>
	<g>
		<circle style="fill:#FCC9A2;" cx="260.759" cy="200.143" r="16"/>
		<circle style="fill:#FCC9A2;" cx="172.259" cy="200.143" r="16"/>
	</g>
	<path style="fill:#426FA5;" d="M289.104,382.813v10.59c0,15.87-12.86,28.74-28.73,28.74h-87.71c-15.87,0-28.74-12.87-28.74-28.74
		v-10.59h0.4c2.25,13.62,14.09,24,28.34,24h87.71c14.25,0,26.08-10.38,28.33-24H289.104z"/>
	<path style="fill:#CCCCCC;" d="M272.016,404.349c-3.559,1.581-7.496,2.464-11.641,2.464h-87.71c-4.147,0-8.087-0.884-11.649-2.466
		v13.497h111L272.016,404.349L272.016,404.349z"/>
	<path style="fill:#4D4D4D;" d="M298.859,112.439c0,1.96-0.07,3.94-0.21,5.93l-3.22,45.34c-3.57-12.43-7.91-31.83-7.52-51.71l0,0
		c-46.555,14.335-96.345,14.336-142.901,0.003l-0.009-0.003c0.39,19.88-3.95,39.28-7.52,51.71l-3.22-45.34
		c-3.38-47.68,34.39-88.23,82.2-88.23C262.268,30.139,298.859,67.379,298.859,112.439z"/>
	<polygon style="fill:#4D4D4D;" points="278.995,108.003 287.105,257.336 290.995,102.003 	"/>
	<path style="fill:#F7774B;" d="M336.869,386.369v29.27c0,2.41-1.96,4.36-4.37,4.36h-38.97v-38h38.97
		C334.909,381.999,336.869,383.959,336.869,386.369z"/>
	<rect x="293.528" y="395.669" style="fill:#F2F2F2;" width="43.34" height="10.67"/>
	<g>
		<circle style="fill:#333333;" cx="181.391" cy="167.538" r="6"/>
		<circle style="fill:#333333;" cx="251.517" cy="167.538" r="6"/>
	</g>
</g>
<g>
</g>
<g>
</g>
<g>
</g>
<g>
</g>
<g>
</g>
<g>
</g>
<g>
</g>
<g>
</g>
<g>
</g>
<g>
</g>
<g>
</g>
<g>
</g>
<g>
</g>
<g>
</g>
<g>
</g>
</svg>
