<?xml version="1.0" encoding="iso-8859-1"?>
<!-- Generator: Adobe Illustrator 19.0.0, SVG Export Plug-In . SVG Version: 6.00 Build 0)  -->
<svg version="1.1" id="Layer_1" xmlns="http://www.w3.org/2000/svg" xmlns:xlink="http://www.w3.org/1999/xlink" x="0px" y="0px"
	 viewBox="0 0 405.73 405.73" style="enable-background:new 0 0 405.73 405.73;" xml:space="preserve">
<g>
	<path style="fill:#77D661;" d="M320.38,405.73H85.35c0,0,16.29-145.59,40.5-159.61c7.76-4.51,16.34-7.76,25.45-9.48
		c4.91-0.93,9.99-1.42,15.17-1.42h72.79c5.18,0,10.26,0.49,15.17,1.42c9.12,1.72,17.69,4.97,25.45,9.47
		C304.09,260.14,320.38,405.73,320.38,405.73z"/>
	<path style="fill:#FFD3AE;" d="M125.85,246.12v159.61h-40.5v-89.39C85.35,286.34,101.64,260.14,125.85,246.12z"/>
	<path style="fill:#FFD3AE;" d="M320.38,316.34v89.39h-40.5V246.11C304.09,260.14,320.38,286.34,320.38,316.34z"/>
	<path style="fill:#FFD3AE;" d="M246.431,212.551V303c0,12.02-4.87,22.92-12.76,30.8c-7.88,7.88-18.78,12.76-30.81,12.76
		c-24.06,0-43.56-19.5-43.56-43.56v-90.449H246.431z"/>
	<path style="fill:#E5B591;" d="M246.431,212.551v24.06c-12.86,7.29-27.73,11.45-43.57,11.45s-30.7-4.16-43.56-11.45v-24.06H246.431
		z"/>
	<path style="fill:#FFD3AE;" d="M282.13,128.68l-0.59,8.26l-0.35,5l-1.35,19.02c-2.87,40.44-36.5,71.77-77.04,71.77
		c-40.53,0-74.16-31.33-77.03-71.77l-1.35-19.02l-0.35-5l-0.59-8.26l39.388-50.713l80.667,1.333L282.13,128.68z"/>
	<path style="fill:#4D4D4D;" d="M202.8,96.67c0,0,11.439,12.855,55.494,14.342S255.35,64,255.35,64L202.8,96.67z"/>
	<path style="fill:#77D661;" d="M285.21,82.29c0,1.96-0.07,3.94-0.21,5.93l-2.87,40.46c-20.49-19.77-48.39-32.01-79.33-32.01
		c-30.93,0-58.84,12.24-79.32,32.01l-2.87-40.46C117.23,40.54,155,0,202.8,0C248.62,0,285.21,37.23,285.21,82.29z"/>
	<path style="fill:#FFD3AE;" d="M317.08,210.78c0,2.72-0.1,5.46-0.29,8.22v-16.29C316.98,205.38,317.08,208.07,317.08,210.78z"/>
	<g>
		<path style="fill:#E5B591;" d="M151.729,121.064h35.044c6.522,0,11.81,5.287,11.81,11.81v25.558c0,2.643,2.142,4.785,4.785,4.785
			h11.183l-9.485,3.366c-3.672,1.303-7.767,0.37-10.513-2.395L151.729,121.064z"/>
	</g>
	<g>
		<path style="fill:#FFFFFF;" d="M223.816,180c0,2.475-0.432,4.842-1.229,7.052c-0.374,1.063-0.839,2.085-1.371,3.057
			c-3.572,6.462-10.449,10.839-18.356,10.839c-7.916,0-14.793-4.377-18.365-10.839c-0.54-0.972-1.005-1.993-1.379-3.057
			c-0.797-2.209-1.221-4.577-1.221-7.052H223.816z"/>
		<path style="fill:#333333;" d="M222.594,187.052c-0.374,1.063-0.839,2.085-1.371,3.057c-3.572,6.462-10.449,10.839-18.356,10.839
			c-7.916,0-14.793-4.377-18.365-10.839c-0.54-0.972-1.005-1.993-1.379-3.057H222.594z"/>
	</g>
	<path style="fill:#935827;" d="M179.486,125.5c-0.322,0-0.65-0.052-0.972-0.163c-6.948-2.379-14.601-2.379-21.547,0
		c-1.567,0.536-3.273-0.299-3.81-1.867c-0.537-1.567,0.299-3.273,1.867-3.81c8.201-2.807,17.234-2.807,25.434,0
		c1.567,0.537,2.403,2.243,1.867,3.81C181.898,124.717,180.733,125.5,179.486,125.5z"/>
	<path style="fill:#935827;" d="M249.613,125.5c-0.322,0-0.65-0.052-0.972-0.163c-6.948-2.379-14.601-2.379-21.547,0
		c-1.567,0.536-3.273-0.299-3.81-1.867c-0.537-1.567,0.299-3.273,1.867-3.81c8.201-2.807,17.234-2.807,25.434,0
		c1.567,0.537,2.403,2.243,1.867,3.81C252.025,124.717,250.86,125.5,249.613,125.5z"/>
	<g>
		<circle style="fill:#FCC9A2;" cx="247.109" cy="170" r="16"/>
		<circle style="fill:#FCC9A2;" cx="158.609" cy="170" r="16"/>
	</g>
	<path style="fill:#5FBA49;" d="M275.454,352.67v10.59c0,15.87-12.86,28.74-28.73,28.74h-87.71c-15.87,0-28.74-12.87-28.74-28.74
		v-10.59h0.4c2.25,13.62,14.09,24,28.34,24h87.71c14.25,0,26.08-10.38,28.33-24H275.454z"/>
	<g>
		<polygon style="fill:#4D4D4D;" points="281.54,136.94 281.19,141.94 124.42,141.94 124.07,136.94 		"/>
		<g>
			<path style="fill:#50BBD8;" d="M192.571,139.44c0,6.68-5.84,11.86-12.47,11.06l-13.18-1.57l-7.58-0.91
				c-2.17-0.26-4.08-1.31-5.44-2.85c-1.36-1.53-2.18-3.54-2.18-5.73c0-4.38,3.28-8.07,7.62-8.59l20.76-2.48
				c0.04,0,0.09-0.01,0.13-0.01c0.42-0.05,0.82-0.07,1.22-0.07C187.501,128.29,192.571,133.21,192.571,139.44z"/>
			<path style="fill:#50BBD8;" d="M253.881,139.44c0,2.19-0.82,4.2-2.18,5.73c-1.36,1.54-3.26,2.59-5.44,2.85l-20.75,2.48
				c-0.28,0.03-0.57,0.05-0.84,0.06c-3.15,0.15-6.06-1.03-8.18-3.07c-2.12-2.01-3.45-4.86-3.45-8.05c0-6.23,5.06-11.15,11.12-11.15
				c0.44,0,0.89,0.03,1.35,0.08l3.12,0.37l9.43,1.13l8.2,0.98C250.611,131.37,253.881,135.06,253.881,139.44z"/>
		</g>
		<path style="opacity:0.26;fill:#FFFFFF;enable-background:new    ;" d="M253.881,139.44c0,2.19-0.82,4.2-2.18,5.73
			c-1.36,1.54-3.26,2.59-5.44,2.85l-20.75,2.48c-0.28,0.03-0.57,0.05-0.84,0.06l13.39-20.69l8.2,0.98
			C250.611,131.37,253.881,135.06,253.881,139.44z"/>
		<path style="opacity:0.26;fill:#FFFFFF;enable-background:new    ;" d="M192.571,139.44c0,6.68-5.84,11.86-12.47,11.06
			l-13.18-1.57l13.31-20.57c0.42-0.05,0.82-0.07,1.22-0.07C187.501,128.29,192.571,133.21,192.571,139.44z"/>
	</g>
</g>
<g>
</g>
<g>
</g>
<g>
</g>
<g>
</g>
<g>
</g>
<g>
</g>
<g>
</g>
<g>
</g>
<g>
</g>
<g>
</g>
<g>
</g>
<g>
</g>
<g>
</g>
<g>
</g>
<g>
</g>
</svg>
