<?xml version="1.0" encoding="utf-8"?>
<!-- Generator: Adobe Illustrator 27.0.0, SVG Export Plug-In . SVG Version: 6.00 Build 0)  -->
<svg version="1.1" id="Calque_1" xmlns="http://www.w3.org/2000/svg" xmlns:xlink="http://www.w3.org/1999/xlink" x="0px" y="0px"
	 viewBox="0 0 16 16" xml:space="preserve">
<defs>
    <style>
      .cls-1 {
        fill: #D39B53;
      } 
    </style>
  </defs>
<path class="cls-1" d="M8,0c0.6,0,1,0.4,1,1v6h6c0.6,0,1,0.4,1,1c0,0.6-0.4,1-1,1H9v6c0,0.6-0.4,1-1,1c-0.6,0-1-0.4-1-1V9H1C0.4,9,0,8.6,0,8
	c0-0.6,0.4-1,1-1h6V1C7,0.4,7.4,0,8,0z"/>

</svg>
