<?xml version="1.0" encoding="utf-8"?>
<!-- Generator: Adobe Illustrator 27.0.0, SVG Export Plug-In . SVG Version: 6.00 Build 0)  -->
<svg version="1.1" id="Calque_1" xmlns="http://www.w3.org/2000/svg" xmlns:xlink="http://www.w3.org/1999/xlink" x="0px" y="0px"
	 viewBox="0 0 448 512" style="enable-background:new 0 0 448 512;" xml:space="preserve">
<defs>
    <style>
      .cls-1 {
        fill: #D39B53;
      } 
    </style>
</defs>
<path class="cls-1" d="M284.2,0c12.1,0,23.2,6.8,28.6,17.7L320,32h96c17.7,0,32,14.3,32,32s-14.3,32-32,32H32C14.3,96,0,81.7,0,64s14.3-32,32-32
	h96l7.2-14.3C140.6,6.8,151.7,0,163.8,0H284.2z M31.1,128H416l-21.2,338.1c-1.6,26.2-22.5,45.9-47.9,45.9H101.1
	c-25.3,0-46.3-19.7-47.9-45.9L31.1,128z"/>
</svg>
