<svg version="1.0" xmlns="http://www.w3.org/2000/svg"
 width="840.000000pt" height="826.000000pt" viewBox="0 0 840.000000 826.000000"
 preserveAspectRatio="xMidYMid meet">
<defs>
    <style>
      .cls-1 {
        fill: #D39B53;
      } 
    </style>
</defs>
<g transform="translate(0.000000,826.000000) scale(0.100000,-0.100000)"
fill="#000000" stroke="none">
<path class="cls-1" d="M2130 7504 c-1463 -668 -1565 -714 -1581 -714 -8 0 -39 -7 -67 -15
-110 -33 -214 -167 -259 -335 -17 -61 -18 -199 -18 -2325 0 -2126 1 -2264 18
-2325 45 -168 149 -302 259 -335 28 -8 59 -15 68 -15 10 0 53 -16 96 -37 43
-20 572 -261 1174 -535 1211 -551 1112 -514 1213 -460 94 51 175 168 214 312
17 62 18 243 18 3395 0 3152 -1 3333 -18 3395 -39 143 -119 261 -214 312 -102
55 -42 76 -903 -318z m272 -2775 c249 -52 406 -301 343 -544 -88 -336 -501
-447 -747 -202 -112 112 -156 286 -109 436 26 85 61 140 126 199 112 102 246
141 387 111z"/>
<path class="cls-1" d="M3920 6910 l0 -300 810 0 810 0 0 -545 0 -545 261 0 260 0 -3 598
c-3 595 -4 597 -27 667 -68 203 -184 332 -357 397 l-59 23 -847 3 -848 3 0
-301z"/>
<path class="cls-1" d="M6446 5973 c-3 -3 -6 -188 -6 -410 l0 -403 -1005 0 -1005 0 2 -932 3
-933 1003 -3 1002 -2 0 -368 c0 -203 3 -371 6 -375 5 -5 1688 1643 1732 1695
7 9 9 22 6 29 -4 8 -179 183 -389 389 -210 206 -598 588 -862 847 -264 260
-483 470 -487 466z"/>
<path class="cls-1" d="M5547 3023 c-4 -3 -7 -321 -7 -705 l0 -698 -810 0 -810 0 0 -300 0
-300 814 0 c461 0 835 4 862 9 169 32 304 137 389 302 72 140 69 100 72 942
l4 757 -254 0 c-139 0 -257 -3 -260 -7z"/>
</g>
</svg>
