<?xml version="1.0" encoding="utf-8"?>
<!-- Generator: Adobe Illustrator 27.0.0, SVG Export Plug-In . SVG Version: 6.00 Build 0)  -->
<svg version="1.1" id="Calque_1" xmlns="http://www.w3.org/2000/svg" xmlns:xlink="http://www.w3.org/1999/xlink" x="0px" y="0px"
	 viewBox="0 0 512 512" style="enable-background:new 0 0 512 512;" xml:space="preserve">
<defs>
    <style>
      .cls-1 {
        fill: #D39B53;
      } 
    </style>
</defs>
<path class="cls-1" d="M492.7,42.8c25,25,25,65.6,0,90.6l-56.4,56.4l-114-114l56.4-56.4c25-25,65.6-25,90.6,0L492.7,42.8z M44.9,353.2L299.7,98.3
	l114,114L158.8,467.1c-6.7,6.7-15,11.6-24.2,14.3l-104,29.7c-8.4,2.4-17.4,0-23.6-7c-6.2-5.3-8.5-14.3-6.1-22.7l29.7-104
	C33.3,368.2,38.2,359.9,44.9,353.2z"/>
</svg>
