<svg xmlns="http://www.w3.org/2000/svg" xmlns:xlink="http://www.w3.org/1999/xlink" version="1.1" width="640" height="480" viewBox="0 0 640 480" xml:space="preserve">
<defs>
    <style>
        .cls-1 {
        fill: #D39B53;
        } 
    </style>
</defs>
<g transform="matrix(-1 0 0 1 321.51 221.05)"  >
<path class="cls-1" transform=" translate(-287.98, -263.55)" d="M 192.4 320 c 63.38 0 54.09 -39.67 95.33 -40.02 c 42.54 0.3672 31.81 40.02 95.91 40.02 c 39.27 0 55.72 -18.41 62.21 -24.83 l -140.4 -116.1 c 3.292 -1.689 31.66 -18.2 75.25 -18.2 c 12.57 0 25.18 1.397 37.53 4.21 l 38.59 8.844 c 2.412 0.5592 4.824 0.8272 7.2 0.8272 c 15.91 0 31.96 -12.81 31.96 -32.04 c 0 -14.58 -10.03 -27.77 -24.84 -31.16 l -38.59 -8.844 c -17.06 -3.904 -34.46 -5.837 -51.81 -5.837 c -120.1 0 -177.4 85.87 -178.1 88.02 L 179.1 213.3 C 158.1 241.3 147.4 273.8 145 307.7 C 157.5 315.4 174.3 320 192.4 320 z M 576 397 c 0 -15.14 -10.82 -28.59 -26.25 -31.42 c -48.52 -8.888 -45.5 -29.48 -69.6 -29.48 c -25.02 0 -31.19 31.79 -96.18 31.79 c -48.59 0 -72.72 -22.06 -73.38 -22.62 c -6.141 -6.157 -14.26 -9.188 -22.42 -9.188 c -24.75 0 -31.59 31.81 -96.2 31.81 c -48.59 0 -72.69 -22.03 -73.41 -22.59 c -6.125 -6.157 -14.3 -9.245 -22.46 -9.245 c -8.072 0 -16.12 3.026 -22.38 8.901 c -29.01 26.25 -73.75 12.54 -73.75 52.08 c 0 16.08 12.77 32.07 31.71 32.07 c 9.77 0 39.65 -7.34 64.26 -21.84 C 115.5 418.8 147.4 431.1 192 431.1 s 76.5 -13.12 96 -24.66 c 19.53 11.53 51.47 24.59 96 24.59 c 44.59 0 76.56 -13.09 96.06 -24.62 c 24.71 14.57 54.74 21.83 64.24 21.83 C 563.2 429.1 576 413.3 576 397 z M 95.1 224 c 35.35 0 64 -28.65 64 -64 c 0 -35.35 -28.65 -64 -64 -64 s -64 28.65 -64 64 C 31.1 195.3 60.65 224 95.1 224 z" stroke-linecap="round" />
</g>
</svg>
